<?xml version="1.0" encoding="UTF-8" standalone="no"?>
<!DOCTYPE svg PUBLIC "-//W3C//DTD SVG 1.1//EN"
 "http://www.w3.org/Graphics/SVG/1.1/DTD/svg11.dtd">
<!-- Generated by graphviz version 2.38.0 (20140413.2041)
 -->
<!-- Title: example.ypp Pages: 1 -->
<svg width="787pt" height="750pt"
 viewBox="0.00 0.00 787.33 750.00" xmlns="http://www.w3.org/2000/svg" xmlns:xlink="http://www.w3.org/1999/xlink">
<g id="graph0" class="graph" transform="scale(1 1) rotate(0) translate(4 746)">
<title>example.ypp</title>
<polygon fill="white" stroke="none" points="-4,4 -4,-746 783.332,-746 783.332,4 -4,4"/>
<!-- 0 -->
<g id="node1" class="node"><title>0</title>
<polygon fill="none" stroke="black" points="578,-742 388,-742 388,-688 578,-688 578,-742"/>
<text text-anchor="middle" x="483" y="-726.8" font-family="Courier,monospace" font-size="14.00">State 0</text>
<text text-anchor="start" x="396" y="-695.8" font-family="Courier,monospace" font-size="14.00"> &#160;0 $accept: . P $end</text>
</g>
<!-- 1 -->
<g id="node2" class="node"><title>1</title>
<polygon fill="none" stroke="black" points="535,-142 419,-142 419,-88 535,-88 535,-142"/>
<text text-anchor="middle" x="477" y="-126.8" font-family="Courier,monospace" font-size="14.00">State 1</text>
<text text-anchor="start" x="427" y="-95.8" font-family="Courier,monospace" font-size="14.00"> &#160;4 S: &#39;c&#39; .</text>
</g>
<!-- 0&#45;&gt;1 -->
<g id="edge1" class="edge"><title>0&#45;&gt;1</title>
<path fill="none" stroke="black" d="M483,-687.755C483,-663.842 483,-627.549 483,-596 483,-596 483,-596 483,-234 483,-206.606 481.367,-175.681 479.805,-152.364"/>
<polygon fill="black" stroke="black" points="483.285,-151.958 479.099,-142.226 476.302,-152.445 483.285,-151.958"/>
<text text-anchor="middle" x="495.5" y="-418.8" font-family="Courier,monospace" font-size="14.00">&#39;c&#39;</text>
</g>
<!-- 2 -->
<g id="node3" class="node"><title>2</title>
<polygon fill="none" stroke="black" points="156,-142 40,-142 40,-88 156,-88 156,-142"/>
<text text-anchor="middle" x="98" y="-126.8" font-family="Courier,monospace" font-size="14.00">State 2</text>
<text text-anchor="start" x="48" y="-95.8" font-family="Courier,monospace" font-size="14.00"> &#160;5 S: &#39;d&#39; .</text>
</g>
<!-- 0&#45;&gt;2 -->
<g id="edge2" class="edge"><title>0&#45;&gt;2</title>
<path fill="none" stroke="black" d="M387.863,-709.972C247.151,-701.379 0,-675.037 0,-596 0,-596 0,-596 0,-234 0,-199.518 25.0723,-169.729 49.8534,-148.708"/>
<polygon fill="black" stroke="black" points="52.309,-151.222 57.8569,-142.196 47.8911,-145.792 52.309,-151.222"/>
<text text-anchor="middle" x="12.5" y="-418.8" font-family="Courier,monospace" font-size="14.00">&#39;d&#39;</text>
</g>
<!-- 3 -->
<g id="node4" class="node"><title>3</title>
<polygon fill="none" stroke="black" points="701,-622 511,-622 511,-568 701,-568 701,-622"/>
<text text-anchor="middle" x="606" y="-606.8" font-family="Courier,monospace" font-size="14.00">State 3</text>
<text text-anchor="start" x="519" y="-575.8" font-family="Courier,monospace" font-size="14.00"> &#160;0 $accept: P . $end</text>
</g>
<!-- 0&#45;&gt;3 -->
<g id="edge3" class="edge"><title>0&#45;&gt;3</title>
<path fill="none" stroke="black" stroke-dasharray="5,2" d="M510.298,-687.812C528.292,-670.549 552.015,-647.791 571.339,-629.252"/>
<polygon fill="black" stroke="black" points="573.985,-631.563 578.779,-622.115 569.139,-626.512 573.985,-631.563"/>
<text text-anchor="middle" x="549.5" y="-658.8" font-family="Courier,monospace" font-size="14.00">P</text>
</g>
<!-- 4 -->
<g id="node5" class="node"><title>4</title>
<polygon fill="none" stroke="black" points="415.5,-637 266.5,-637 266.5,-553 415.5,-553 415.5,-637"/>
<text text-anchor="middle" x="341" y="-621.8" font-family="Courier,monospace" font-size="14.00">State 4</text>
<text text-anchor="start" x="274.5" y="-590.8" font-family="Courier,monospace" font-size="14.00"> &#160;1 P: S . &#39;\n&#39;</text>
<text text-anchor="start" x="274.5" y="-575.8" font-family="Courier,monospace" font-size="14.00"> &#160;2 S: S . &#39;a&#39; S</text>
<text text-anchor="start" x="274.5" y="-560.8" font-family="Courier,monospace" font-size="14.00"> &#160;3 &#160;| S . &#39;b&#39; S</text>
</g>
<!-- 0&#45;&gt;4 -->
<g id="edge4" class="edge"><title>0&#45;&gt;4</title>
<path fill="none" stroke="black" stroke-dasharray="5,2" d="M451.486,-687.812C435.828,-674.801 416.415,-658.669 398.25,-643.574"/>
<polygon fill="black" stroke="black" points="400.484,-640.879 390.556,-637.18 396.01,-646.263 400.484,-640.879"/>
<text text-anchor="middle" x="433.5" y="-658.8" font-family="Courier,monospace" font-size="14.00">S</text>
</g>
<!-- 0R6 -->
<g id="node6" class="node"><title>0R6</title>
<polygon fill="#b2df8a" stroke="black" points="749,-613 718.835,-595 749,-577 779.165,-595 749,-613"/>
<text text-anchor="middle" x="749" y="-591.3" font-family="Courier,monospace" font-size="14.00">R6</text>
</g>
<!-- 0&#45;&gt;0R6 -->
<g id="edge5" class="edge"><title>0&#45;&gt;0R6</title>
<path fill="none" stroke="black" d="M578.149,-692.792C620.639,-680.613 670.026,-662.549 710,-637 718.875,-631.327 727.157,-623.215 733.786,-615.7"/>
<polygon fill="black" stroke="black" points="736.556,-617.844 740.28,-607.926 731.183,-613.357 736.556,-617.844"/>
</g>
<!-- 1R4 -->
<g id="node7" class="node"><title>1R4</title>
<polygon fill="#b2df8a" stroke="black" points="477,-36 446.835,-18 477,-3.55271e-15 507.165,-18 477,-36"/>
<text text-anchor="middle" x="477" y="-14.3" font-family="Courier,monospace" font-size="14.00">R4</text>
</g>
<!-- 1&#45;&gt;1R4 -->
<g id="edge6" class="edge"><title>1&#45;&gt;1R4</title>
<path fill="none" stroke="black" d="M477,-87.7894C477,-74.9173 477,-59.4153 477,-46.3885"/>
<polygon fill="black" stroke="black" points="480.5,-46.1401 477,-36.1402 473.5,-46.1402 480.5,-46.1401"/>
</g>
<!-- 2R5 -->
<g id="node8" class="node"><title>2R5</title>
<polygon fill="#b2df8a" stroke="black" points="98,-36 67.8347,-18 98,-3.55271e-15 128.165,-18 98,-36"/>
<text text-anchor="middle" x="98" y="-14.3" font-family="Courier,monospace" font-size="14.00">R5</text>
</g>
<!-- 2&#45;&gt;2R5 -->
<g id="edge7" class="edge"><title>2&#45;&gt;2R5</title>
<path fill="none" stroke="black" d="M98,-87.7894C98,-74.9173 98,-59.4153 98,-46.3885"/>
<polygon fill="black" stroke="black" points="101.5,-46.1401 98,-36.1402 94.5001,-46.1402 101.5,-46.1401"/>
</g>
<!-- 5 -->
<g id="node9" class="node"><title>5</title>
<polygon fill="none" stroke="black" points="701,-502 511,-502 511,-448 701,-448 701,-502"/>
<text text-anchor="middle" x="606" y="-486.8" font-family="Courier,monospace" font-size="14.00">State 5</text>
<text text-anchor="start" x="519" y="-455.8" font-family="Courier,monospace" font-size="14.00"> &#160;0 $accept: P $end .</text>
</g>
<!-- 3&#45;&gt;5 -->
<g id="edge8" class="edge"><title>3&#45;&gt;5</title>
<path fill="none" stroke="black" d="M606,-567.812C606,-551.466 606,-530.192 606,-512.239"/>
<polygon fill="black" stroke="black" points="609.5,-512.115 606,-502.115 602.5,-512.115 609.5,-512.115"/>
<text text-anchor="middle" x="623" y="-523.8" font-family="Courier,monospace" font-size="14.00">$end</text>
</g>
<!-- 6 -->
<g id="node10" class="node"><title>6</title>
<polygon fill="none" stroke="black" points="371.5,-502 222.5,-502 222.5,-448 371.5,-448 371.5,-502"/>
<text text-anchor="middle" x="297" y="-486.8" font-family="Courier,monospace" font-size="14.00">State 6</text>
<text text-anchor="start" x="230.5" y="-455.8" font-family="Courier,monospace" font-size="14.00"> &#160;2 S: S &#39;a&#39; . S</text>
</g>
<!-- 4&#45;&gt;6 -->
<g id="edge9" class="edge"><title>4&#45;&gt;6</title>
<path fill="none" stroke="black" d="M325.611,-552.729C320.634,-539.383 315.16,-524.703 310.345,-511.788"/>
<polygon fill="black" stroke="black" points="313.583,-510.454 306.809,-502.307 307.024,-512.9 313.583,-510.454"/>
<text text-anchor="middle" x="331.5" y="-523.8" font-family="Courier,monospace" font-size="14.00">&#39;a&#39;</text>
</g>
<!-- 7 -->
<g id="node11" class="node"><title>7</title>
<polygon fill="none" stroke="black" points="371.5,-262 222.5,-262 222.5,-208 371.5,-208 371.5,-262"/>
<text text-anchor="middle" x="297" y="-246.8" font-family="Courier,monospace" font-size="14.00">State 7</text>
<text text-anchor="start" x="230.5" y="-215.8" font-family="Courier,monospace" font-size="14.00"> &#160;3 S: S &#39;b&#39; . S</text>
</g>
<!-- 4&#45;&gt;7 -->
<g id="edge10" class="edge"><title>4&#45;&gt;7</title>
<path fill="none" stroke="black" d="M363.55,-552.872C380.183,-520.487 401.794,-473.673 413,-430 429.622,-365.219 463.851,-334.438 425,-280 414.404,-265.153 398.465,-255.264 381.397,-248.692"/>
<polygon fill="black" stroke="black" points="382.421,-245.342 371.826,-245.371 380.126,-251.956 382.421,-245.342"/>
<text text-anchor="middle" x="430.5" y="-418.8" font-family="Courier,monospace" font-size="14.00">&#39;b&#39;</text>
</g>
<!-- 8 -->
<g id="node12" class="node"><title>8</title>
<polygon fill="none" stroke="black" points="186,-502 46,-502 46,-448 186,-448 186,-502"/>
<text text-anchor="middle" x="116" y="-486.8" font-family="Courier,monospace" font-size="14.00">State 8</text>
<text text-anchor="start" x="54" y="-455.8" font-family="Courier,monospace" font-size="14.00"> &#160;1 P: S &#39;\n&#39; .</text>
</g>
<!-- 4&#45;&gt;8 -->
<g id="edge11" class="edge"><title>4&#45;&gt;8</title>
<path fill="none" stroke="black" d="M266.391,-554.872C236.495,-539.193 202.557,-521.394 174.496,-506.678"/>
<polygon fill="black" stroke="black" points="176.086,-503.559 165.604,-502.015 172.834,-509.759 176.086,-503.559"/>
<text text-anchor="middle" x="246" y="-523.8" font-family="Courier,monospace" font-size="14.00">&#39;\n&#39;</text>
</g>
<!-- 5R0 -->
<g id="node13" class="node"><title>5R0</title>
<polygon fill="#a6cee3" stroke="black" points="606,-373 568.128,-355 606,-337 643.872,-355 606,-373"/>
<text text-anchor="middle" x="606" y="-351.3" font-family="Courier,monospace" font-size="14.00">Acc</text>
</g>
<!-- 5&#45;&gt;5R0 -->
<g id="edge12" class="edge"><title>5&#45;&gt;5R0</title>
<path fill="none" stroke="black" d="M606,-447.812C606,-428.563 606,-402.482 606,-383.036"/>
<polygon fill="black" stroke="black" points="609.5,-383.001 606,-373.001 602.5,-383.001 609.5,-383.001"/>
</g>
<!-- 6&#45;&gt;1 -->
<g id="edge13" class="edge"><title>6&#45;&gt;1</title>
<path fill="none" stroke="black" d="M332.313,-447.936C348.711,-434.308 367.335,-416.431 380,-397 431.601,-317.833 459.01,-208.16 470.436,-152.12"/>
<polygon fill="black" stroke="black" points="473.871,-152.79 472.385,-142.3 467.005,-151.427 473.871,-152.79"/>
<text text-anchor="middle" x="447.5" y="-283.8" font-family="Courier,monospace" font-size="14.00">&#39;c&#39;</text>
</g>
<!-- 6&#45;&gt;2 -->
<g id="edge14" class="edge"><title>6&#45;&gt;2</title>
<path fill="none" stroke="black" d="M222.46,-455.857C190.598,-444.276 155.978,-425.832 135,-397 81.5829,-323.584 85.9465,-210.02 92.5486,-152.321"/>
<polygon fill="black" stroke="black" points="96.0439,-152.573 93.7939,-142.22 89.0965,-151.717 96.0439,-152.573"/>
<text text-anchor="middle" x="107.5" y="-283.8" font-family="Courier,monospace" font-size="14.00">&#39;d&#39;</text>
</g>
<!-- 9 -->
<g id="node14" class="node"><title>9</title>
<polygon fill="none" stroke="black" points="371.5,-397 222.5,-397 222.5,-313 371.5,-313 371.5,-397"/>
<text text-anchor="middle" x="297" y="-381.8" font-family="Courier,monospace" font-size="14.00">State 9</text>
<text text-anchor="start" x="230.5" y="-350.8" font-family="Courier,monospace" font-size="14.00"> &#160;2 S: S . &#39;a&#39; S</text>
<text text-anchor="start" x="230.5" y="-335.8" font-family="Courier,monospace" font-size="14.00"> &#160;2 &#160;| S &#39;a&#39; S .</text>
<text text-anchor="start" x="230.5" y="-320.8" font-family="Courier,monospace" font-size="14.00"> &#160;3 &#160;| S . &#39;b&#39; S</text>
</g>
<!-- 6&#45;&gt;9 -->
<g id="edge15" class="edge"><title>6&#45;&gt;9</title>
<path fill="none" stroke="black" stroke-dasharray="5,2" d="M297,-447.812C297,-435.901 297,-421.374 297,-407.423"/>
<polygon fill="black" stroke="black" points="300.5,-407.411 297,-397.411 293.5,-407.411 300.5,-407.411"/>
<text text-anchor="middle" x="301.5" y="-418.8" font-family="Courier,monospace" font-size="14.00">S</text>
</g>
<!-- 6R6 -->
<g id="node15" class="node"><title>6R6</title>
<polygon fill="#b2df8a" stroke="black" points="174,-373 143.835,-355 174,-337 204.165,-355 174,-373"/>
<text text-anchor="middle" x="174" y="-351.3" font-family="Courier,monospace" font-size="14.00">R6</text>
</g>
<!-- 6&#45;&gt;6R6 -->
<g id="edge16" class="edge"><title>6&#45;&gt;6R6</title>
<path fill="none" stroke="black" d="M267.386,-447.756C251.087,-433.088 230.647,-414.324 213,-397 205.845,-389.976 198.196,-382.036 191.585,-375.026"/>
<polygon fill="black" stroke="black" points="193.779,-372.248 184.391,-367.336 188.667,-377.03 193.779,-372.248"/>
</g>
<!-- 7&#45;&gt;1 -->
<g id="edge17" class="edge"><title>7&#45;&gt;1</title>
<path fill="none" stroke="black" d="M320.197,-207.909C331.341,-196.591 345.428,-183.916 360,-175 380.146,-162.673 388.706,-167.217 410,-157 416.113,-154.067 422.379,-150.727 428.507,-147.248"/>
<polygon fill="black" stroke="black" points="430.482,-150.148 437.354,-142.084 426.953,-144.102 430.482,-150.148"/>
<text text-anchor="middle" x="372.5" y="-178.8" font-family="Courier,monospace" font-size="14.00">&#39;c&#39;</text>
</g>
<!-- 7&#45;&gt;2 -->
<g id="edge18" class="edge"><title>7&#45;&gt;2</title>
<path fill="none" stroke="black" d="M251.653,-207.863C226.121,-193.068 193.696,-174.147 165,-157 159.9,-153.953 154.596,-150.755 149.305,-147.547"/>
<polygon fill="black" stroke="black" points="150.813,-144.368 140.45,-142.162 147.176,-150.349 150.813,-144.368"/>
<text text-anchor="middle" x="232.5" y="-178.8" font-family="Courier,monospace" font-size="14.00">&#39;d&#39;</text>
</g>
<!-- 10 -->
<g id="node16" class="node"><title>10</title>
<polygon fill="none" stroke="black" points="401.5,-157 252.5,-157 252.5,-73 401.5,-73 401.5,-157"/>
<text text-anchor="middle" x="327" y="-141.8" font-family="Courier,monospace" font-size="14.00">State 10</text>
<text text-anchor="start" x="260.5" y="-110.8" font-family="Courier,monospace" font-size="14.00"> &#160;2 S: S . &#39;a&#39; S</text>
<text text-anchor="start" x="260.5" y="-95.8" font-family="Courier,monospace" font-size="14.00"> &#160;3 &#160;| S . &#39;b&#39; S</text>
<text text-anchor="start" x="260.5" y="-80.8" font-family="Courier,monospace" font-size="14.00"> &#160;3 &#160;| S &#39;b&#39; S .</text>
</g>
<!-- 7&#45;&gt;10 -->
<g id="edge19" class="edge"><title>7&#45;&gt;10</title>
<path fill="none" stroke="black" stroke-dasharray="5,2" d="M303.658,-207.812C306.686,-195.901 310.379,-181.374 313.926,-167.423"/>
<polygon fill="black" stroke="black" points="317.4,-167.965 316.472,-157.411 310.616,-166.24 317.4,-167.965"/>
<text text-anchor="middle" x="316.5" y="-178.8" font-family="Courier,monospace" font-size="14.00">S</text>
</g>
<!-- 7R6 -->
<g id="node17" class="node"><title>7R6</title>
<polygon fill="#b2df8a" stroke="black" points="204,-133 173.835,-115 204,-97 234.165,-115 204,-133"/>
<text text-anchor="middle" x="204" y="-111.3" font-family="Courier,monospace" font-size="14.00">R6</text>
</g>
<!-- 7&#45;&gt;7R6 -->
<g id="edge20" class="edge"><title>7&#45;&gt;7R6</title>
<path fill="none" stroke="black" d="M276.36,-207.812C259.206,-186.046 235.167,-155.545 219.589,-135.78"/>
<polygon fill="black" stroke="black" points="222.218,-133.46 213.279,-127.773 216.72,-137.793 222.218,-133.46"/>
</g>
<!-- 8R1 -->
<g id="node18" class="node"><title>8R1</title>
<polygon fill="#b2df8a" stroke="black" points="58,-373 27.8347,-355 58,-337 88.1653,-355 58,-373"/>
<text text-anchor="middle" x="58" y="-351.3" font-family="Courier,monospace" font-size="14.00">R1</text>
</g>
<!-- 8&#45;&gt;8R1 -->
<g id="edge21" class="edge"><title>8&#45;&gt;8R1</title>
<path fill="none" stroke="black" d="M103.128,-447.812C92.907,-427.018 78.767,-398.25 69.0534,-378.488"/>
<polygon fill="black" stroke="black" points="72.1017,-376.755 64.5494,-369.325 65.8195,-379.843 72.1017,-376.755"/>
</g>
<!-- 9&#45;&gt;7 -->
<g id="edge22" class="edge"><title>9&#45;&gt;7</title>
<path fill="none" stroke="black" d="M297,-312.729C297,-299.645 297,-285.278 297,-272.55"/>
<polygon fill="black" stroke="black" points="300.5,-272.307 297,-262.307 293.5,-272.307 300.5,-272.307"/>
<text text-anchor="middle" x="309.5" y="-283.8" font-family="Courier,monospace" font-size="14.00">&#39;b&#39;</text>
</g>
<!-- 9R2 -->
<g id="node19" class="node"><title>9R2</title>
<polygon fill="#b2df8a" stroke="black" points="174,-253 143.835,-235 174,-217 204.165,-235 174,-253"/>
<text text-anchor="middle" x="174" y="-231.3" font-family="Courier,monospace" font-size="14.00">R2</text>
</g>
<!-- 9&#45;&gt;9R2 -->
<g id="edge23" class="edge"><title>9&#45;&gt;9R2</title>
<path fill="none" stroke="black" d="M253.981,-312.729C232.905,-292.511 208.638,-269.23 192.413,-253.664"/>
<polygon fill="black" stroke="black" points="194.782,-251.087 185.143,-246.69 189.936,-256.138 194.782,-251.087"/>
</g>
<!-- 10&#45;&gt;7 -->
<g id="edge24" class="edge"><title>10&#45;&gt;7</title>
<path fill="none" stroke="black" d="M288.876,-157.12C285.271,-162.802 282.161,-168.819 280,-175 277.378,-182.5 277.724,-190.633 279.531,-198.396"/>
<polygon fill="black" stroke="black" points="276.189,-199.437 282.489,-207.955 282.877,-197.368 276.189,-199.437"/>
<text text-anchor="middle" x="292.5" y="-178.8" font-family="Courier,monospace" font-size="14.00">&#39;b&#39;</text>
</g>
<!-- 10R3 -->
<g id="node20" class="node"><title>10R3</title>
<polygon fill="#b2df8a" stroke="black" points="327,-36 296.835,-18 327,-3.55271e-15 357.165,-18 327,-36"/>
<text text-anchor="middle" x="327" y="-14.3" font-family="Courier,monospace" font-size="14.00">R3</text>
</g>
<!-- 10&#45;&gt;10R3 -->
<g id="edge25" class="edge"><title>10&#45;&gt;10R3</title>
<path fill="none" stroke="black" d="M327,-72.8841C327,-63.9581 327,-54.7258 327,-46.4789"/>
<polygon fill="black" stroke="black" points="330.5,-46.314 327,-36.314 323.5,-46.314 330.5,-46.314"/>
</g>
</g>
</svg>
